<mxfile host="Electron" modified="2023-06-06T16:31:17.923Z" agent="Mozilla/5.0 (Windows NT 10.0; Win64; x64) AppleWebKit/537.36 (KHTML, like Gecko) draw.io/21.2.8 Chrome/112.0.5615.165 Electron/24.2.0 Safari/537.36" etag="a15_XEaIBhin8eye_Pjt" version="21.2.8" type="device">
  <diagram name="Page-1" id="VcrgXU4TaVZug3DxoUS5">
    <mxGraphModel dx="4020" dy="2860" grid="1" gridSize="10" guides="1" tooltips="1" connect="1" arrows="1" fold="1" page="1" pageScale="1" pageWidth="827" pageHeight="1169" background="none" math="0" shadow="0">
      <root>
        <mxCell id="0" />
        <mxCell id="1" parent="0" />
        <mxCell id="PxUTHteUMAplcKpXIYFR-192" value="" style="rounded=0;whiteSpace=wrap;html=1;" vertex="1" parent="1">
          <mxGeometry x="65" width="495" height="3200" as="geometry" />
        </mxCell>
        <mxCell id="PxUTHteUMAplcKpXIYFR-1" value="User" style="shape=umlActor;verticalLabelPosition=bottom;verticalAlign=top;html=1;outlineConnect=0;" vertex="1" parent="1">
          <mxGeometry x="100" y="175" width="30" height="60" as="geometry" />
        </mxCell>
        <mxCell id="PxUTHteUMAplcKpXIYFR-5" value="" style="rounded=0;whiteSpace=wrap;html=1;" vertex="1" parent="1">
          <mxGeometry x="180" y="45" width="200" height="290" as="geometry" />
        </mxCell>
        <mxCell id="PxUTHteUMAplcKpXIYFR-8" value="Account Manager" style="text;html=1;strokeColor=none;fillColor=none;align=center;verticalAlign=top;whiteSpace=wrap;rounded=0;horizontal=1;" vertex="1" parent="1">
          <mxGeometry x="223.13" y="45" width="100" height="30" as="geometry" />
        </mxCell>
        <mxCell id="PxUTHteUMAplcKpXIYFR-9" value="1. Sign Up" style="ellipse;whiteSpace=wrap;html=1;fontSize=11;" vertex="1" parent="1">
          <mxGeometry x="205" y="75" width="70" height="20" as="geometry" />
        </mxCell>
        <mxCell id="PxUTHteUMAplcKpXIYFR-12" value="" style="endArrow=none;html=1;rounded=0;exitX=1;exitY=0.3333333333333333;exitDx=0;exitDy=0;exitPerimeter=0;entryX=0;entryY=0.5;entryDx=0;entryDy=0;" edge="1" parent="1" source="PxUTHteUMAplcKpXIYFR-1" target="PxUTHteUMAplcKpXIYFR-9">
          <mxGeometry width="50" height="50" relative="1" as="geometry">
            <mxPoint x="210" y="205" as="sourcePoint" />
            <mxPoint x="260" y="155" as="targetPoint" />
          </mxGeometry>
        </mxCell>
        <mxCell id="PxUTHteUMAplcKpXIYFR-14" value="2. Login" style="ellipse;whiteSpace=wrap;html=1;fontSize=11;" vertex="1" parent="1">
          <mxGeometry x="205" y="105" width="70" height="20" as="geometry" />
        </mxCell>
        <mxCell id="PxUTHteUMAplcKpXIYFR-85" style="edgeStyle=orthogonalEdgeStyle;rounded=0;orthogonalLoop=1;jettySize=auto;html=1;entryX=1;entryY=0.5;entryDx=0;entryDy=0;dashed=1;" edge="1" parent="1" source="PxUTHteUMAplcKpXIYFR-15" target="PxUTHteUMAplcKpXIYFR-14">
          <mxGeometry relative="1" as="geometry">
            <Array as="points">
              <mxPoint x="300" y="145" />
              <mxPoint x="300" y="115" />
            </Array>
          </mxGeometry>
        </mxCell>
        <mxCell id="PxUTHteUMAplcKpXIYFR-86" value="&amp;lt;&amp;lt;extends&amp;gt;&amp;gt;" style="edgeLabel;html=1;align=center;verticalAlign=middle;resizable=0;points=[];" vertex="1" connectable="0" parent="PxUTHteUMAplcKpXIYFR-85">
          <mxGeometry x="-0.2539" y="1" relative="1" as="geometry">
            <mxPoint x="7" y="-7" as="offset" />
          </mxGeometry>
        </mxCell>
        <mxCell id="PxUTHteUMAplcKpXIYFR-15" value="3. Choose&lt;br&gt;Prefences" style="ellipse;whiteSpace=wrap;html=1;fontSize=11;" vertex="1" parent="1">
          <mxGeometry x="198.75" y="130" width="81.25" height="30" as="geometry" />
        </mxCell>
        <mxCell id="PxUTHteUMAplcKpXIYFR-16" value="4. Edit Profile" style="ellipse;whiteSpace=wrap;html=1;fontSize=11;" vertex="1" parent="1">
          <mxGeometry x="205" y="165" width="75" height="20" as="geometry" />
        </mxCell>
        <mxCell id="PxUTHteUMAplcKpXIYFR-17" value="5. Sign out" style="ellipse;whiteSpace=wrap;html=1;fontSize=11;" vertex="1" parent="1">
          <mxGeometry x="205" y="195" width="70" height="20" as="geometry" />
        </mxCell>
        <mxCell id="PxUTHteUMAplcKpXIYFR-18" value="6. View posts and&amp;nbsp; comments&amp;nbsp;" style="ellipse;whiteSpace=wrap;html=1;fontSize=11;" vertex="1" parent="1">
          <mxGeometry x="200" y="225" width="85" height="60" as="geometry" />
        </mxCell>
        <mxCell id="PxUTHteUMAplcKpXIYFR-21" value="7. Change Theme" style="ellipse;whiteSpace=wrap;html=1;fontSize=11;" vertex="1" parent="1">
          <mxGeometry x="205" y="295" width="85" height="35" as="geometry" />
        </mxCell>
        <mxCell id="PxUTHteUMAplcKpXIYFR-24" value="" style="endArrow=none;html=1;rounded=0;entryX=0.023;entryY=0.704;entryDx=0;entryDy=0;entryPerimeter=0;" edge="1" parent="1" target="PxUTHteUMAplcKpXIYFR-14">
          <mxGeometry width="50" height="50" relative="1" as="geometry">
            <mxPoint x="130" y="195" as="sourcePoint" />
            <mxPoint x="215" y="95" as="targetPoint" />
          </mxGeometry>
        </mxCell>
        <mxCell id="PxUTHteUMAplcKpXIYFR-25" value="" style="endArrow=none;html=1;rounded=0;entryX=0;entryY=0.5;entryDx=0;entryDy=0;" edge="1" parent="1" target="PxUTHteUMAplcKpXIYFR-15">
          <mxGeometry width="50" height="50" relative="1" as="geometry">
            <mxPoint x="130" y="195" as="sourcePoint" />
            <mxPoint x="225" y="105" as="targetPoint" />
          </mxGeometry>
        </mxCell>
        <mxCell id="PxUTHteUMAplcKpXIYFR-27" value="" style="endArrow=none;html=1;rounded=0;exitX=1;exitY=0.3333333333333333;exitDx=0;exitDy=0;exitPerimeter=0;entryX=0;entryY=0.5;entryDx=0;entryDy=0;" edge="1" parent="1" source="PxUTHteUMAplcKpXIYFR-1" target="PxUTHteUMAplcKpXIYFR-16">
          <mxGeometry width="50" height="50" relative="1" as="geometry">
            <mxPoint x="140" y="275" as="sourcePoint" />
            <mxPoint x="215" y="165" as="targetPoint" />
            <Array as="points" />
          </mxGeometry>
        </mxCell>
        <mxCell id="PxUTHteUMAplcKpXIYFR-28" value="" style="endArrow=none;html=1;rounded=0;entryX=0;entryY=0.5;entryDx=0;entryDy=0;" edge="1" parent="1" target="PxUTHteUMAplcKpXIYFR-17">
          <mxGeometry width="50" height="50" relative="1" as="geometry">
            <mxPoint x="130" y="195" as="sourcePoint" />
            <mxPoint x="245" y="125" as="targetPoint" />
          </mxGeometry>
        </mxCell>
        <mxCell id="PxUTHteUMAplcKpXIYFR-29" value="" style="endArrow=none;html=1;rounded=0;entryX=0.012;entryY=0.414;entryDx=0;entryDy=0;entryPerimeter=0;" edge="1" parent="1" target="PxUTHteUMAplcKpXIYFR-18">
          <mxGeometry width="50" height="50" relative="1" as="geometry">
            <mxPoint x="130" y="195" as="sourcePoint" />
            <mxPoint x="220" y="225" as="targetPoint" />
            <Array as="points">
              <mxPoint x="170" y="225" />
            </Array>
          </mxGeometry>
        </mxCell>
        <mxCell id="PxUTHteUMAplcKpXIYFR-30" value="" style="endArrow=none;html=1;rounded=0;entryX=0;entryY=0.5;entryDx=0;entryDy=0;" edge="1" parent="1" target="PxUTHteUMAplcKpXIYFR-21">
          <mxGeometry width="50" height="50" relative="1" as="geometry">
            <mxPoint x="130" y="195" as="sourcePoint" />
            <mxPoint x="215" y="175" as="targetPoint" />
          </mxGeometry>
        </mxCell>
        <mxCell id="PxUTHteUMAplcKpXIYFR-32" value="User" style="shape=umlActor;verticalLabelPosition=bottom;verticalAlign=top;html=1;outlineConnect=0;" vertex="1" parent="1">
          <mxGeometry x="80" y="505" width="30" height="60" as="geometry" />
        </mxCell>
        <mxCell id="PxUTHteUMAplcKpXIYFR-33" value="" style="rounded=0;whiteSpace=wrap;html=1;" vertex="1" parent="1">
          <mxGeometry x="180" y="355" width="220" height="530" as="geometry" />
        </mxCell>
        <mxCell id="PxUTHteUMAplcKpXIYFR-34" value="Post Subsystem" style="text;html=1;strokeColor=none;fillColor=none;align=center;verticalAlign=top;whiteSpace=wrap;rounded=0;horizontal=1;" vertex="1" parent="1">
          <mxGeometry x="240" y="355" width="100" height="30" as="geometry" />
        </mxCell>
        <mxCell id="PxUTHteUMAplcKpXIYFR-35" value="1. View Posts &amp;amp; Recommendations" style="ellipse;whiteSpace=wrap;html=1;fontSize=11;" vertex="1" parent="1">
          <mxGeometry x="201.25" y="375" width="102.5" height="50" as="geometry" />
        </mxCell>
        <mxCell id="PxUTHteUMAplcKpXIYFR-36" value="" style="endArrow=none;html=1;rounded=0;exitX=1;exitY=0.3333333333333333;exitDx=0;exitDy=0;exitPerimeter=0;entryX=0;entryY=0.5;entryDx=0;entryDy=0;" edge="1" parent="1" source="PxUTHteUMAplcKpXIYFR-32" target="PxUTHteUMAplcKpXIYFR-35">
          <mxGeometry width="50" height="50" relative="1" as="geometry">
            <mxPoint x="220" y="515" as="sourcePoint" />
            <mxPoint x="270" y="465" as="targetPoint" />
            <Array as="points">
              <mxPoint x="180" y="435" />
            </Array>
          </mxGeometry>
        </mxCell>
        <mxCell id="PxUTHteUMAplcKpXIYFR-37" value="2. Create Posts" style="ellipse;whiteSpace=wrap;html=1;fontSize=11;" vertex="1" parent="1">
          <mxGeometry x="217.5" y="435" width="75" height="30" as="geometry" />
        </mxCell>
        <mxCell id="PxUTHteUMAplcKpXIYFR-38" value="3. Like/dislike Posts" style="ellipse;whiteSpace=wrap;html=1;fontSize=11;" vertex="1" parent="1">
          <mxGeometry x="210.01" y="475" width="85" height="40" as="geometry" />
        </mxCell>
        <mxCell id="PxUTHteUMAplcKpXIYFR-39" value="4. Comment on post/Start &lt;br&gt;Thread" style="ellipse;whiteSpace=wrap;html=1;fontSize=11;verticalAlign=bottom;" vertex="1" parent="1">
          <mxGeometry x="210.01" y="525" width="95.61" height="50" as="geometry" />
        </mxCell>
        <mxCell id="PxUTHteUMAplcKpXIYFR-40" value="5. Share Posts" style="ellipse;whiteSpace=wrap;html=1;fontSize=11;" vertex="1" parent="1">
          <mxGeometry x="224.38" y="585" width="70" height="40" as="geometry" />
        </mxCell>
        <mxCell id="PxUTHteUMAplcKpXIYFR-41" value="6. Report Posts" style="ellipse;whiteSpace=wrap;html=1;fontSize=11;" vertex="1" parent="1">
          <mxGeometry x="213.75" y="629" width="85" height="60" as="geometry" />
        </mxCell>
        <mxCell id="PxUTHteUMAplcKpXIYFR-58" style="edgeStyle=orthogonalEdgeStyle;rounded=0;orthogonalLoop=1;jettySize=auto;html=1;entryX=1;entryY=0.5;entryDx=0;entryDy=0;dashed=1" edge="1" parent="1" source="PxUTHteUMAplcKpXIYFR-42" target="PxUTHteUMAplcKpXIYFR-39">
          <mxGeometry relative="1" as="geometry">
            <Array as="points">
              <mxPoint x="340" y="715" />
              <mxPoint x="340" y="550" />
            </Array>
          </mxGeometry>
        </mxCell>
        <mxCell id="PxUTHteUMAplcKpXIYFR-60" value="&amp;lt;&amp;lt;Extends&amp;gt;&amp;gt;" style="edgeLabel;html=1;align=center;verticalAlign=middle;resizable=0;points=[];" vertex="1" connectable="0" parent="PxUTHteUMAplcKpXIYFR-58">
          <mxGeometry x="-0.2552" relative="1" as="geometry">
            <mxPoint y="-16" as="offset" />
          </mxGeometry>
        </mxCell>
        <mxCell id="PxUTHteUMAplcKpXIYFR-42" value="7. Reply on Comment" style="ellipse;whiteSpace=wrap;html=1;fontSize=11;" vertex="1" parent="1">
          <mxGeometry x="216.88" y="695" width="83.12" height="40" as="geometry" />
        </mxCell>
        <mxCell id="PxUTHteUMAplcKpXIYFR-43" value="" style="endArrow=none;html=1;rounded=0;entryX=0;entryY=0.5;entryDx=0;entryDy=0;" edge="1" parent="1" target="PxUTHteUMAplcKpXIYFR-37">
          <mxGeometry width="50" height="50" relative="1" as="geometry">
            <mxPoint x="110" y="525" as="sourcePoint" />
            <mxPoint x="225" y="405" as="targetPoint" />
            <Array as="points" />
          </mxGeometry>
        </mxCell>
        <mxCell id="PxUTHteUMAplcKpXIYFR-44" value="" style="endArrow=none;html=1;rounded=0;entryX=0;entryY=0.5;entryDx=0;entryDy=0;exitX=1;exitY=0.3333333333333333;exitDx=0;exitDy=0;exitPerimeter=0;" edge="1" parent="1" target="PxUTHteUMAplcKpXIYFR-38" source="PxUTHteUMAplcKpXIYFR-32">
          <mxGeometry width="50" height="50" relative="1" as="geometry">
            <mxPoint x="140" y="505" as="sourcePoint" />
            <mxPoint x="235" y="415" as="targetPoint" />
            <Array as="points" />
          </mxGeometry>
        </mxCell>
        <mxCell id="PxUTHteUMAplcKpXIYFR-45" value="" style="endArrow=none;html=1;rounded=0;exitX=1;exitY=0.3333333333333333;exitDx=0;exitDy=0;exitPerimeter=0;entryX=0.052;entryY=0.255;entryDx=0;entryDy=0;entryPerimeter=0;" edge="1" parent="1" source="PxUTHteUMAplcKpXIYFR-32" target="PxUTHteUMAplcKpXIYFR-39">
          <mxGeometry width="50" height="50" relative="1" as="geometry">
            <mxPoint x="150" y="585" as="sourcePoint" />
            <mxPoint x="225" y="475" as="targetPoint" />
            <Array as="points" />
          </mxGeometry>
        </mxCell>
        <mxCell id="PxUTHteUMAplcKpXIYFR-46" value="" style="endArrow=none;html=1;rounded=0;entryX=0;entryY=0.5;entryDx=0;entryDy=0;" edge="1" parent="1" target="PxUTHteUMAplcKpXIYFR-40">
          <mxGeometry width="50" height="50" relative="1" as="geometry">
            <mxPoint x="110" y="525" as="sourcePoint" />
            <mxPoint x="255" y="435" as="targetPoint" />
          </mxGeometry>
        </mxCell>
        <mxCell id="PxUTHteUMAplcKpXIYFR-47" value="" style="endArrow=none;html=1;rounded=0;" edge="1" parent="1" target="PxUTHteUMAplcKpXIYFR-41">
          <mxGeometry width="50" height="50" relative="1" as="geometry">
            <mxPoint x="110" y="525" as="sourcePoint" />
            <mxPoint x="230" y="535" as="targetPoint" />
            <Array as="points" />
          </mxGeometry>
        </mxCell>
        <mxCell id="PxUTHteUMAplcKpXIYFR-48" value="" style="endArrow=none;html=1;rounded=0;entryX=0;entryY=0.5;entryDx=0;entryDy=0;exitX=1;exitY=0.3333333333333333;exitDx=0;exitDy=0;exitPerimeter=0;" edge="1" parent="1" target="PxUTHteUMAplcKpXIYFR-42" source="PxUTHteUMAplcKpXIYFR-32">
          <mxGeometry width="50" height="50" relative="1" as="geometry">
            <mxPoint x="130" y="515" as="sourcePoint" />
            <mxPoint x="225" y="485" as="targetPoint" />
            <Array as="points" />
          </mxGeometry>
        </mxCell>
        <mxCell id="PxUTHteUMAplcKpXIYFR-52" value="8. Delete Posts" style="ellipse;whiteSpace=wrap;html=1;fontSize=11;" vertex="1" parent="1">
          <mxGeometry x="211.25" y="745" width="87.5" height="50" as="geometry" />
        </mxCell>
        <mxCell id="PxUTHteUMAplcKpXIYFR-53" value="" style="endArrow=none;html=1;rounded=0;entryX=0.048;entryY=0.248;entryDx=0;entryDy=0;entryPerimeter=0;" edge="1" parent="1" target="PxUTHteUMAplcKpXIYFR-52">
          <mxGeometry width="50" height="50" relative="1" as="geometry">
            <mxPoint x="110" y="525" as="sourcePoint" />
            <mxPoint x="224" y="680" as="targetPoint" />
            <Array as="points" />
          </mxGeometry>
        </mxCell>
        <mxCell id="PxUTHteUMAplcKpXIYFR-63" style="edgeStyle=orthogonalEdgeStyle;rounded=0;orthogonalLoop=1;jettySize=auto;html=1;entryX=1;entryY=0.5;entryDx=0;entryDy=0;dashed=1;" edge="1" parent="1" source="PxUTHteUMAplcKpXIYFR-61" target="PxUTHteUMAplcKpXIYFR-52">
          <mxGeometry relative="1" as="geometry">
            <Array as="points">
              <mxPoint x="340" y="845" />
              <mxPoint x="340" y="770" />
            </Array>
          </mxGeometry>
        </mxCell>
        <mxCell id="PxUTHteUMAplcKpXIYFR-64" value="&amp;lt;&amp;lt;Extends&amp;gt;&amp;gt;" style="edgeLabel;html=1;align=center;verticalAlign=middle;resizable=0;points=[];" vertex="1" connectable="0" parent="PxUTHteUMAplcKpXIYFR-63">
          <mxGeometry x="-0.1301" y="1" relative="1" as="geometry">
            <mxPoint x="1" y="-12" as="offset" />
          </mxGeometry>
        </mxCell>
        <mxCell id="PxUTHteUMAplcKpXIYFR-61" value="9. Delete Comments/&lt;br&gt;Threads" style="ellipse;whiteSpace=wrap;html=1;fontSize=11;" vertex="1" parent="1">
          <mxGeometry x="211.87" y="805" width="91.88" height="60" as="geometry" />
        </mxCell>
        <mxCell id="PxUTHteUMAplcKpXIYFR-62" value="" style="endArrow=none;html=1;rounded=0;entryX=0.084;entryY=0.189;entryDx=0;entryDy=0;entryPerimeter=0;" edge="1" parent="1" target="PxUTHteUMAplcKpXIYFR-61">
          <mxGeometry width="50" height="50" relative="1" as="geometry">
            <mxPoint x="110" y="525" as="sourcePoint" />
            <mxPoint x="220" y="825" as="targetPoint" />
            <Array as="points" />
          </mxGeometry>
        </mxCell>
        <mxCell id="PxUTHteUMAplcKpXIYFR-65" value="User" style="shape=umlActor;verticalLabelPosition=bottom;verticalAlign=top;html=1;outlineConnect=0;" vertex="1" parent="1">
          <mxGeometry x="110" y="1005" width="30" height="60" as="geometry" />
        </mxCell>
        <mxCell id="PxUTHteUMAplcKpXIYFR-66" value="" style="rounded=0;whiteSpace=wrap;html=1;" vertex="1" parent="1">
          <mxGeometry x="180" y="925" width="120" height="200" as="geometry" />
        </mxCell>
        <mxCell id="PxUTHteUMAplcKpXIYFR-67" value="Events" style="text;html=1;strokeColor=none;fillColor=none;align=center;verticalAlign=top;whiteSpace=wrap;rounded=0;horizontal=1;" vertex="1" parent="1">
          <mxGeometry x="193.75" y="925" width="100" height="30" as="geometry" />
        </mxCell>
        <mxCell id="PxUTHteUMAplcKpXIYFR-68" value="1. View events" style="ellipse;whiteSpace=wrap;html=1;fontSize=11;" vertex="1" parent="1">
          <mxGeometry x="203.75" y="955" width="90" height="20" as="geometry" />
        </mxCell>
        <mxCell id="PxUTHteUMAplcKpXIYFR-69" value="" style="endArrow=none;html=1;rounded=0;exitX=1;exitY=0.3333333333333333;exitDx=0;exitDy=0;exitPerimeter=0;entryX=0;entryY=0.5;entryDx=0;entryDy=0;" edge="1" parent="1" source="PxUTHteUMAplcKpXIYFR-65" target="PxUTHteUMAplcKpXIYFR-68">
          <mxGeometry width="50" height="50" relative="1" as="geometry">
            <mxPoint x="225" y="1085" as="sourcePoint" />
            <mxPoint x="275" y="1035" as="targetPoint" />
          </mxGeometry>
        </mxCell>
        <mxCell id="PxUTHteUMAplcKpXIYFR-70" value="2. Create events" style="ellipse;whiteSpace=wrap;html=1;fontSize=11;" vertex="1" parent="1">
          <mxGeometry x="208.75" y="985" width="80" height="30" as="geometry" />
        </mxCell>
        <mxCell id="PxUTHteUMAplcKpXIYFR-71" value="3. Edit event details" style="ellipse;whiteSpace=wrap;html=1;fontSize=11;" vertex="1" parent="1">
          <mxGeometry x="205.63" y="1025" width="83.75" height="40" as="geometry" />
        </mxCell>
        <mxCell id="PxUTHteUMAplcKpXIYFR-72" value="4. Join/RSVP event" style="ellipse;whiteSpace=wrap;html=1;fontSize=11;" vertex="1" parent="1">
          <mxGeometry x="206.25" y="1075" width="82.5" height="40" as="geometry" />
        </mxCell>
        <mxCell id="PxUTHteUMAplcKpXIYFR-76" value="" style="endArrow=none;html=1;rounded=0;entryX=0;entryY=0.5;entryDx=0;entryDy=0;" edge="1" parent="1" target="PxUTHteUMAplcKpXIYFR-70">
          <mxGeometry width="50" height="50" relative="1" as="geometry">
            <mxPoint x="140" y="1025" as="sourcePoint" />
            <mxPoint x="220" y="995" as="targetPoint" />
          </mxGeometry>
        </mxCell>
        <mxCell id="PxUTHteUMAplcKpXIYFR-77" value="" style="endArrow=none;html=1;rounded=0;entryX=0;entryY=0.5;entryDx=0;entryDy=0;exitX=1;exitY=0.3333333333333333;exitDx=0;exitDy=0;exitPerimeter=0;" edge="1" parent="1" target="PxUTHteUMAplcKpXIYFR-71" source="PxUTHteUMAplcKpXIYFR-65">
          <mxGeometry width="50" height="50" relative="1" as="geometry">
            <mxPoint x="145" y="1075" as="sourcePoint" />
            <mxPoint x="240" y="985" as="targetPoint" />
          </mxGeometry>
        </mxCell>
        <mxCell id="PxUTHteUMAplcKpXIYFR-78" value="" style="endArrow=none;html=1;rounded=0;exitX=1;exitY=0.3333333333333333;exitDx=0;exitDy=0;exitPerimeter=0;entryX=0;entryY=0.5;entryDx=0;entryDy=0;" edge="1" parent="1" source="PxUTHteUMAplcKpXIYFR-65" target="PxUTHteUMAplcKpXIYFR-72">
          <mxGeometry width="50" height="50" relative="1" as="geometry">
            <mxPoint x="155" y="1155" as="sourcePoint" />
            <mxPoint x="230" y="1045" as="targetPoint" />
            <Array as="points" />
          </mxGeometry>
        </mxCell>
        <mxCell id="PxUTHteUMAplcKpXIYFR-87" value="User" style="shape=umlActor;verticalLabelPosition=bottom;verticalAlign=top;html=1;outlineConnect=0;" vertex="1" parent="1">
          <mxGeometry x="55" y="1320" width="30" height="60" as="geometry" />
        </mxCell>
        <mxCell id="PxUTHteUMAplcKpXIYFR-88" value="" style="rounded=0;whiteSpace=wrap;html=1;" vertex="1" parent="1">
          <mxGeometry x="163.75" y="1190" width="321.25" height="320" as="geometry" />
        </mxCell>
        <mxCell id="PxUTHteUMAplcKpXIYFR-89" value="Profile Page" style="text;html=1;strokeColor=none;fillColor=none;align=center;verticalAlign=top;whiteSpace=wrap;rounded=0;horizontal=1;" vertex="1" parent="1">
          <mxGeometry x="265" y="1190" width="100" height="30" as="geometry" />
        </mxCell>
        <mxCell id="PxUTHteUMAplcKpXIYFR-90" value="1. Edit Personal Information" style="ellipse;whiteSpace=wrap;html=1;fontSize=11;" vertex="1" parent="1">
          <mxGeometry x="217.5" y="1220" width="147.5" height="30" as="geometry" />
        </mxCell>
        <mxCell id="PxUTHteUMAplcKpXIYFR-91" value="" style="endArrow=none;html=1;rounded=0;exitX=1;exitY=0.3333333333333333;exitDx=0;exitDy=0;exitPerimeter=0;entryX=0;entryY=0.5;entryDx=0;entryDy=0;" edge="1" parent="1" source="PxUTHteUMAplcKpXIYFR-87" target="PxUTHteUMAplcKpXIYFR-90">
          <mxGeometry width="50" height="50" relative="1" as="geometry">
            <mxPoint x="208.75" y="1350" as="sourcePoint" />
            <mxPoint x="258.75" y="1300" as="targetPoint" />
          </mxGeometry>
        </mxCell>
        <mxCell id="PxUTHteUMAplcKpXIYFR-100" style="edgeStyle=orthogonalEdgeStyle;rounded=0;orthogonalLoop=1;jettySize=auto;html=1;entryX=1;entryY=0.5;entryDx=0;entryDy=0;" edge="1" parent="1" source="PxUTHteUMAplcKpXIYFR-92" target="PxUTHteUMAplcKpXIYFR-90">
          <mxGeometry relative="1" as="geometry">
            <Array as="points">
              <mxPoint x="405" y="1285" />
              <mxPoint x="405" y="1235" />
            </Array>
          </mxGeometry>
        </mxCell>
        <mxCell id="PxUTHteUMAplcKpXIYFR-101" value="&amp;lt;&amp;lt;Extends&amp;gt;&amp;gt;" style="edgeLabel;html=1;align=center;verticalAlign=middle;resizable=0;points=[];" vertex="1" connectable="0" parent="PxUTHteUMAplcKpXIYFR-100">
          <mxGeometry x="-0.2676" relative="1" as="geometry">
            <mxPoint y="-16" as="offset" />
          </mxGeometry>
        </mxCell>
        <mxCell id="PxUTHteUMAplcKpXIYFR-92" value="2. Edit Preferences/Customize Interests" style="ellipse;whiteSpace=wrap;html=1;fontSize=11;" vertex="1" parent="1">
          <mxGeometry x="216.25" y="1260" width="150" height="50" as="geometry" />
        </mxCell>
        <mxCell id="PxUTHteUMAplcKpXIYFR-93" value="3. Personalize theme and view" style="ellipse;whiteSpace=wrap;html=1;fontSize=11;verticalAlign=middle;" vertex="1" parent="1">
          <mxGeometry x="223.13" y="1320" width="141.87" height="50" as="geometry" />
        </mxCell>
        <mxCell id="PxUTHteUMAplcKpXIYFR-94" value="4. View badges" style="ellipse;whiteSpace=wrap;html=1;fontSize=11;" vertex="1" parent="1">
          <mxGeometry x="225" y="1380" width="140" height="40" as="geometry" />
        </mxCell>
        <mxCell id="PxUTHteUMAplcKpXIYFR-95" value="" style="endArrow=none;html=1;rounded=0;entryX=0;entryY=0.5;entryDx=0;entryDy=0;" edge="1" parent="1" target="PxUTHteUMAplcKpXIYFR-92">
          <mxGeometry width="50" height="50" relative="1" as="geometry">
            <mxPoint x="85" y="1340" as="sourcePoint" />
            <mxPoint x="203.75" y="1260" as="targetPoint" />
          </mxGeometry>
        </mxCell>
        <mxCell id="PxUTHteUMAplcKpXIYFR-96" value="" style="endArrow=none;html=1;rounded=0;entryX=0;entryY=0.5;entryDx=0;entryDy=0;exitX=1;exitY=0.3333333333333333;exitDx=0;exitDy=0;exitPerimeter=0;" edge="1" parent="1" source="PxUTHteUMAplcKpXIYFR-87" target="PxUTHteUMAplcKpXIYFR-93">
          <mxGeometry width="50" height="50" relative="1" as="geometry">
            <mxPoint x="128.75" y="1340" as="sourcePoint" />
            <mxPoint x="223.75" y="1250" as="targetPoint" />
          </mxGeometry>
        </mxCell>
        <mxCell id="PxUTHteUMAplcKpXIYFR-97" value="" style="endArrow=none;html=1;rounded=0;exitX=1;exitY=0.3333333333333333;exitDx=0;exitDy=0;exitPerimeter=0;entryX=0;entryY=0.5;entryDx=0;entryDy=0;" edge="1" parent="1" source="PxUTHteUMAplcKpXIYFR-87" target="PxUTHteUMAplcKpXIYFR-94">
          <mxGeometry width="50" height="50" relative="1" as="geometry">
            <mxPoint x="138.75" y="1420" as="sourcePoint" />
            <mxPoint x="213.75" y="1310" as="targetPoint" />
            <Array as="points" />
          </mxGeometry>
        </mxCell>
        <mxCell id="PxUTHteUMAplcKpXIYFR-98" value="5. Share Profile" style="ellipse;whiteSpace=wrap;html=1;fontSize=11;" vertex="1" parent="1">
          <mxGeometry x="226.25" y="1440" width="140" height="40" as="geometry" />
        </mxCell>
        <mxCell id="PxUTHteUMAplcKpXIYFR-99" value="" style="endArrow=none;html=1;rounded=0;exitX=1;exitY=0.3333333333333333;exitDx=0;exitDy=0;exitPerimeter=0;entryX=0;entryY=0.5;entryDx=0;entryDy=0;" edge="1" parent="1" source="PxUTHteUMAplcKpXIYFR-87" target="PxUTHteUMAplcKpXIYFR-98">
          <mxGeometry width="50" height="50" relative="1" as="geometry">
            <mxPoint x="95" y="1350" as="sourcePoint" />
            <mxPoint x="235" y="1410" as="targetPoint" />
            <Array as="points" />
          </mxGeometry>
        </mxCell>
        <mxCell id="PxUTHteUMAplcKpXIYFR-102" value="User" style="shape=umlActor;verticalLabelPosition=bottom;verticalAlign=top;html=1;outlineConnect=0;" vertex="1" parent="1">
          <mxGeometry x="55" y="1680" width="30" height="60" as="geometry" />
        </mxCell>
        <mxCell id="PxUTHteUMAplcKpXIYFR-103" value="" style="rounded=0;whiteSpace=wrap;html=1;" vertex="1" parent="1">
          <mxGeometry x="163.75" y="1550" width="241.25" height="320" as="geometry" />
        </mxCell>
        <mxCell id="PxUTHteUMAplcKpXIYFR-104" value="Notifications" style="text;html=1;strokeColor=none;fillColor=none;align=center;verticalAlign=top;whiteSpace=wrap;rounded=0;horizontal=1;" vertex="1" parent="1">
          <mxGeometry x="240.63" y="1550" width="100" height="30" as="geometry" />
        </mxCell>
        <mxCell id="PxUTHteUMAplcKpXIYFR-105" value="1. Receive notifcations" style="ellipse;whiteSpace=wrap;html=1;fontSize=11;" vertex="1" parent="1">
          <mxGeometry x="217.5" y="1580" width="147.5" height="30" as="geometry" />
        </mxCell>
        <mxCell id="PxUTHteUMAplcKpXIYFR-106" value="" style="endArrow=none;html=1;rounded=0;exitX=1;exitY=0.3333333333333333;exitDx=0;exitDy=0;exitPerimeter=0;entryX=0;entryY=0.5;entryDx=0;entryDy=0;" edge="1" parent="1" source="PxUTHteUMAplcKpXIYFR-102" target="PxUTHteUMAplcKpXIYFR-105">
          <mxGeometry width="50" height="50" relative="1" as="geometry">
            <mxPoint x="208.75" y="1710" as="sourcePoint" />
            <mxPoint x="258.75" y="1660" as="targetPoint" />
          </mxGeometry>
        </mxCell>
        <mxCell id="PxUTHteUMAplcKpXIYFR-109" value="2. View notification" style="ellipse;whiteSpace=wrap;html=1;fontSize=11;" vertex="1" parent="1">
          <mxGeometry x="216.25" y="1620" width="148.75" height="40" as="geometry" />
        </mxCell>
        <mxCell id="PxUTHteUMAplcKpXIYFR-110" value="3. Mark as read/unread" style="ellipse;whiteSpace=wrap;html=1;fontSize=11;verticalAlign=middle;" vertex="1" parent="1">
          <mxGeometry x="223.13" y="1680" width="141.87" height="50" as="geometry" />
        </mxCell>
        <mxCell id="PxUTHteUMAplcKpXIYFR-111" value="4. Delete notifications" style="ellipse;whiteSpace=wrap;html=1;fontSize=11;" vertex="1" parent="1">
          <mxGeometry x="225" y="1740" width="140" height="40" as="geometry" />
        </mxCell>
        <mxCell id="PxUTHteUMAplcKpXIYFR-112" value="" style="endArrow=none;html=1;rounded=0;entryX=0;entryY=0.5;entryDx=0;entryDy=0;" edge="1" parent="1" target="PxUTHteUMAplcKpXIYFR-109">
          <mxGeometry width="50" height="50" relative="1" as="geometry">
            <mxPoint x="85" y="1700" as="sourcePoint" />
            <mxPoint x="203.75" y="1620" as="targetPoint" />
          </mxGeometry>
        </mxCell>
        <mxCell id="PxUTHteUMAplcKpXIYFR-113" value="" style="endArrow=none;html=1;rounded=0;entryX=0;entryY=0.5;entryDx=0;entryDy=0;exitX=1;exitY=0.3333333333333333;exitDx=0;exitDy=0;exitPerimeter=0;" edge="1" parent="1" source="PxUTHteUMAplcKpXIYFR-102" target="PxUTHteUMAplcKpXIYFR-110">
          <mxGeometry width="50" height="50" relative="1" as="geometry">
            <mxPoint x="128.75" y="1700" as="sourcePoint" />
            <mxPoint x="223.75" y="1610" as="targetPoint" />
          </mxGeometry>
        </mxCell>
        <mxCell id="PxUTHteUMAplcKpXIYFR-114" value="" style="endArrow=none;html=1;rounded=0;exitX=1;exitY=0.3333333333333333;exitDx=0;exitDy=0;exitPerimeter=0;entryX=0;entryY=0.5;entryDx=0;entryDy=0;" edge="1" parent="1" source="PxUTHteUMAplcKpXIYFR-102" target="PxUTHteUMAplcKpXIYFR-111">
          <mxGeometry width="50" height="50" relative="1" as="geometry">
            <mxPoint x="138.75" y="1780" as="sourcePoint" />
            <mxPoint x="213.75" y="1670" as="targetPoint" />
            <Array as="points" />
          </mxGeometry>
        </mxCell>
        <mxCell id="PxUTHteUMAplcKpXIYFR-115" value="5. Edit notification settings" style="ellipse;whiteSpace=wrap;html=1;fontSize=11;" vertex="1" parent="1">
          <mxGeometry x="226.25" y="1800" width="140" height="40" as="geometry" />
        </mxCell>
        <mxCell id="PxUTHteUMAplcKpXIYFR-116" value="" style="endArrow=none;html=1;rounded=0;exitX=1;exitY=0.3333333333333333;exitDx=0;exitDy=0;exitPerimeter=0;entryX=0;entryY=0.5;entryDx=0;entryDy=0;" edge="1" parent="1" source="PxUTHteUMAplcKpXIYFR-102" target="PxUTHteUMAplcKpXIYFR-115">
          <mxGeometry width="50" height="50" relative="1" as="geometry">
            <mxPoint x="95" y="1710" as="sourcePoint" />
            <mxPoint x="235" y="1770" as="targetPoint" />
            <Array as="points" />
          </mxGeometry>
        </mxCell>
        <mxCell id="PxUTHteUMAplcKpXIYFR-117" value="User" style="shape=umlActor;verticalLabelPosition=bottom;verticalAlign=top;html=1;outlineConnect=0;" vertex="1" parent="1">
          <mxGeometry x="57.5" y="2040" width="30" height="60" as="geometry" />
        </mxCell>
        <mxCell id="PxUTHteUMAplcKpXIYFR-118" value="" style="rounded=0;whiteSpace=wrap;html=1;" vertex="1" parent="1">
          <mxGeometry x="161.51" y="1910" width="318.75" height="390" as="geometry" />
        </mxCell>
        <mxCell id="PxUTHteUMAplcKpXIYFR-119" value="Search System" style="text;html=1;strokeColor=none;fillColor=none;align=center;verticalAlign=top;whiteSpace=wrap;rounded=0;horizontal=1;" vertex="1" parent="1">
          <mxGeometry x="278.13" y="1910" width="100" height="30" as="geometry" />
        </mxCell>
        <mxCell id="PxUTHteUMAplcKpXIYFR-120" value="1. Filter Search" style="ellipse;whiteSpace=wrap;html=1;fontSize=11;" vertex="1" parent="1">
          <mxGeometry x="220" y="1940" width="147.5" height="30" as="geometry" />
        </mxCell>
        <mxCell id="PxUTHteUMAplcKpXIYFR-121" value="" style="endArrow=none;html=1;rounded=0;exitX=1;exitY=0.3333333333333333;exitDx=0;exitDy=0;exitPerimeter=0;entryX=0;entryY=0.5;entryDx=0;entryDy=0;" edge="1" parent="1" source="PxUTHteUMAplcKpXIYFR-117" target="PxUTHteUMAplcKpXIYFR-120">
          <mxGeometry width="50" height="50" relative="1" as="geometry">
            <mxPoint x="211.25" y="2070" as="sourcePoint" />
            <mxPoint x="261.25" y="2020" as="targetPoint" />
          </mxGeometry>
        </mxCell>
        <mxCell id="PxUTHteUMAplcKpXIYFR-139" style="edgeStyle=orthogonalEdgeStyle;rounded=0;orthogonalLoop=1;jettySize=auto;html=1;dashed=1;" edge="1" parent="1" source="PxUTHteUMAplcKpXIYFR-122">
          <mxGeometry relative="1" as="geometry">
            <mxPoint x="365" y="1960" as="targetPoint" />
            <Array as="points">
              <mxPoint x="445" y="2000" />
              <mxPoint x="445" y="1960" />
            </Array>
          </mxGeometry>
        </mxCell>
        <mxCell id="PxUTHteUMAplcKpXIYFR-140" value="&amp;lt;&amp;lt;Extends&amp;gt;&amp;gt;" style="edgeLabel;html=1;align=center;verticalAlign=middle;resizable=0;points=[];" vertex="1" connectable="0" parent="PxUTHteUMAplcKpXIYFR-139">
          <mxGeometry x="-0.8073" y="-1" relative="1" as="geometry">
            <mxPoint x="21" y="-11" as="offset" />
          </mxGeometry>
        </mxCell>
        <mxCell id="PxUTHteUMAplcKpXIYFR-122" value="2. Search friends" style="ellipse;whiteSpace=wrap;html=1;fontSize=11;" vertex="1" parent="1">
          <mxGeometry x="218.75" y="1980" width="146.25" height="40" as="geometry" />
        </mxCell>
        <mxCell id="PxUTHteUMAplcKpXIYFR-135" style="edgeStyle=orthogonalEdgeStyle;rounded=0;orthogonalLoop=1;jettySize=auto;html=1;dashed=1;" edge="1" parent="1" source="PxUTHteUMAplcKpXIYFR-123" target="PxUTHteUMAplcKpXIYFR-120">
          <mxGeometry relative="1" as="geometry">
            <Array as="points">
              <mxPoint x="445" y="2065" />
              <mxPoint x="445" y="1960" />
            </Array>
          </mxGeometry>
        </mxCell>
        <mxCell id="PxUTHteUMAplcKpXIYFR-141" value="&amp;lt;&amp;lt;Extends&amp;gt;&amp;gt;" style="edgeLabel;html=1;align=center;verticalAlign=middle;resizable=0;points=[];" vertex="1" connectable="0" parent="PxUTHteUMAplcKpXIYFR-135">
          <mxGeometry x="-0.751" y="2" relative="1" as="geometry">
            <mxPoint x="7" y="-13" as="offset" />
          </mxGeometry>
        </mxCell>
        <mxCell id="PxUTHteUMAplcKpXIYFR-123" value="3. Search communities" style="ellipse;whiteSpace=wrap;html=1;fontSize=11;verticalAlign=middle;" vertex="1" parent="1">
          <mxGeometry x="225.63" y="2040" width="139.37" height="50" as="geometry" />
        </mxCell>
        <mxCell id="PxUTHteUMAplcKpXIYFR-134" style="edgeStyle=orthogonalEdgeStyle;rounded=0;orthogonalLoop=1;jettySize=auto;html=1;entryX=0.992;entryY=0.64;entryDx=0;entryDy=0;entryPerimeter=0;dashed=1;" edge="1" parent="1" source="PxUTHteUMAplcKpXIYFR-124" target="PxUTHteUMAplcKpXIYFR-120">
          <mxGeometry relative="1" as="geometry">
            <Array as="points">
              <mxPoint x="445" y="2120" />
              <mxPoint x="445" y="1959" />
            </Array>
          </mxGeometry>
        </mxCell>
        <mxCell id="PxUTHteUMAplcKpXIYFR-142" value="&amp;lt;&amp;lt;Extends&amp;gt;&amp;gt;" style="edgeLabel;html=1;align=center;verticalAlign=middle;resizable=0;points=[];" vertex="1" connectable="0" parent="PxUTHteUMAplcKpXIYFR-134">
          <mxGeometry x="-0.8338" y="-1" relative="1" as="geometry">
            <mxPoint x="13" y="-11" as="offset" />
          </mxGeometry>
        </mxCell>
        <mxCell id="PxUTHteUMAplcKpXIYFR-124" value="4. Search events" style="ellipse;whiteSpace=wrap;html=1;fontSize=11;" vertex="1" parent="1">
          <mxGeometry x="227.5" y="2100" width="137.5" height="40" as="geometry" />
        </mxCell>
        <mxCell id="PxUTHteUMAplcKpXIYFR-125" value="" style="endArrow=none;html=1;rounded=0;entryX=0;entryY=0.5;entryDx=0;entryDy=0;" edge="1" parent="1" target="PxUTHteUMAplcKpXIYFR-122">
          <mxGeometry width="50" height="50" relative="1" as="geometry">
            <mxPoint x="87.5" y="2060" as="sourcePoint" />
            <mxPoint x="206.25" y="1980" as="targetPoint" />
          </mxGeometry>
        </mxCell>
        <mxCell id="PxUTHteUMAplcKpXIYFR-126" value="" style="endArrow=none;html=1;rounded=0;entryX=0;entryY=0.5;entryDx=0;entryDy=0;exitX=1;exitY=0.3333333333333333;exitDx=0;exitDy=0;exitPerimeter=0;" edge="1" parent="1" source="PxUTHteUMAplcKpXIYFR-117" target="PxUTHteUMAplcKpXIYFR-123">
          <mxGeometry width="50" height="50" relative="1" as="geometry">
            <mxPoint x="131.25" y="2060" as="sourcePoint" />
            <mxPoint x="226.25" y="1970" as="targetPoint" />
          </mxGeometry>
        </mxCell>
        <mxCell id="PxUTHteUMAplcKpXIYFR-127" value="" style="endArrow=none;html=1;rounded=0;exitX=1;exitY=0.3333333333333333;exitDx=0;exitDy=0;exitPerimeter=0;entryX=0;entryY=0.5;entryDx=0;entryDy=0;" edge="1" parent="1" source="PxUTHteUMAplcKpXIYFR-117" target="PxUTHteUMAplcKpXIYFR-124">
          <mxGeometry width="50" height="50" relative="1" as="geometry">
            <mxPoint x="141.25" y="2140" as="sourcePoint" />
            <mxPoint x="216.25" y="2030" as="targetPoint" />
            <Array as="points" />
          </mxGeometry>
        </mxCell>
        <mxCell id="PxUTHteUMAplcKpXIYFR-132" style="edgeStyle=orthogonalEdgeStyle;rounded=0;orthogonalLoop=1;jettySize=auto;html=1;dashed=1;" edge="1" parent="1" source="PxUTHteUMAplcKpXIYFR-128" target="PxUTHteUMAplcKpXIYFR-120">
          <mxGeometry relative="1" as="geometry">
            <Array as="points">
              <mxPoint x="445" y="2180" />
              <mxPoint x="445" y="1960" />
            </Array>
          </mxGeometry>
        </mxCell>
        <mxCell id="PxUTHteUMAplcKpXIYFR-143" value="&amp;lt;&amp;lt;Extends&amp;gt;&amp;gt;" style="edgeLabel;html=1;align=center;verticalAlign=middle;resizable=0;points=[];" vertex="1" connectable="0" parent="PxUTHteUMAplcKpXIYFR-132">
          <mxGeometry x="-0.8313" relative="1" as="geometry">
            <mxPoint x="4" y="-10" as="offset" />
          </mxGeometry>
        </mxCell>
        <mxCell id="PxUTHteUMAplcKpXIYFR-128" value="5. Search Keywords" style="ellipse;whiteSpace=wrap;html=1;fontSize=11;" vertex="1" parent="1">
          <mxGeometry x="228.75" y="2160" width="140" height="40" as="geometry" />
        </mxCell>
        <mxCell id="PxUTHteUMAplcKpXIYFR-129" value="" style="endArrow=none;html=1;rounded=0;exitX=1;exitY=0.3333333333333333;exitDx=0;exitDy=0;exitPerimeter=0;entryX=0;entryY=0.5;entryDx=0;entryDy=0;" edge="1" parent="1" source="PxUTHteUMAplcKpXIYFR-117" target="PxUTHteUMAplcKpXIYFR-128">
          <mxGeometry width="50" height="50" relative="1" as="geometry">
            <mxPoint x="97.5" y="2070" as="sourcePoint" />
            <mxPoint x="237.5" y="2130" as="targetPoint" />
            <Array as="points" />
          </mxGeometry>
        </mxCell>
        <mxCell id="PxUTHteUMAplcKpXIYFR-130" value="6. View results/recommendations" style="ellipse;whiteSpace=wrap;html=1;fontSize=11;" vertex="1" parent="1">
          <mxGeometry x="228.75" y="2220" width="142.13" height="60" as="geometry" />
        </mxCell>
        <mxCell id="PxUTHteUMAplcKpXIYFR-131" value="" style="endArrow=none;html=1;rounded=0;entryX=0;entryY=0.5;entryDx=0;entryDy=0;" edge="1" parent="1" target="PxUTHteUMAplcKpXIYFR-130">
          <mxGeometry width="50" height="50" relative="1" as="geometry">
            <mxPoint x="85" y="2060" as="sourcePoint" />
            <mxPoint x="241.62" y="2190" as="targetPoint" />
            <Array as="points" />
          </mxGeometry>
        </mxCell>
        <mxCell id="PxUTHteUMAplcKpXIYFR-144" value="User" style="shape=umlActor;verticalLabelPosition=bottom;verticalAlign=top;html=1;outlineConnect=0;" vertex="1" parent="1">
          <mxGeometry x="109.38" y="2480" width="30" height="60" as="geometry" />
        </mxCell>
        <mxCell id="PxUTHteUMAplcKpXIYFR-145" value="" style="rounded=0;whiteSpace=wrap;html=1;" vertex="1" parent="1">
          <mxGeometry x="200.63" y="2350" width="247.5" height="410" as="geometry" />
        </mxCell>
        <mxCell id="PxUTHteUMAplcKpXIYFR-146" value="Communities" style="text;html=1;strokeColor=none;fillColor=none;align=center;verticalAlign=top;whiteSpace=wrap;rounded=0;horizontal=1;" vertex="1" parent="1">
          <mxGeometry x="270.88" y="2350" width="100" height="30" as="geometry" />
        </mxCell>
        <mxCell id="PxUTHteUMAplcKpXIYFR-147" value="1. View community profile" style="ellipse;whiteSpace=wrap;html=1;fontSize=11;" vertex="1" parent="1">
          <mxGeometry x="235.01" y="2380" width="112.5" height="40" as="geometry" />
        </mxCell>
        <mxCell id="PxUTHteUMAplcKpXIYFR-148" value="" style="endArrow=none;html=1;rounded=0;exitX=1;exitY=0.3333333333333333;exitDx=0;exitDy=0;exitPerimeter=0;entryX=0;entryY=0.5;entryDx=0;entryDy=0;" edge="1" parent="1" source="PxUTHteUMAplcKpXIYFR-144" target="PxUTHteUMAplcKpXIYFR-147">
          <mxGeometry width="50" height="50" relative="1" as="geometry">
            <mxPoint x="231.88" y="2530" as="sourcePoint" />
            <mxPoint x="281.88" y="2480" as="targetPoint" />
          </mxGeometry>
        </mxCell>
        <mxCell id="PxUTHteUMAplcKpXIYFR-149" value="2. Create Community" style="ellipse;whiteSpace=wrap;html=1;fontSize=11;" vertex="1" parent="1">
          <mxGeometry x="236.26" y="2430" width="112.49" height="40" as="geometry" />
        </mxCell>
        <mxCell id="PxUTHteUMAplcKpXIYFR-152" value="3. Join Community" style="ellipse;whiteSpace=wrap;html=1;fontSize=11;" vertex="1" parent="1">
          <mxGeometry x="236.88" y="2480" width="111.24" height="30" as="geometry" />
        </mxCell>
        <mxCell id="PxUTHteUMAplcKpXIYFR-153" value="4. Leave Community" style="ellipse;whiteSpace=wrap;html=1;fontSize=11;" vertex="1" parent="1">
          <mxGeometry x="237.51" y="2520" width="118.75" height="30" as="geometry" />
        </mxCell>
        <mxCell id="PxUTHteUMAplcKpXIYFR-174" style="edgeStyle=orthogonalEdgeStyle;rounded=0;orthogonalLoop=1;jettySize=auto;html=1;entryX=1;entryY=0.5;entryDx=0;entryDy=0;dashed=1;" edge="1" parent="1">
          <mxGeometry relative="1" as="geometry">
            <mxPoint x="340.7447077300925" y="2574.9999999999995" as="sourcePoint" />
            <mxPoint x="354.89" y="2530" as="targetPoint" />
            <Array as="points">
              <mxPoint x="375.01" y="2575" />
              <mxPoint x="375.01" y="2530" />
            </Array>
          </mxGeometry>
        </mxCell>
        <mxCell id="PxUTHteUMAplcKpXIYFR-175" value="&amp;lt;&amp;lt;Extends&amp;gt;&amp;gt;" style="edgeLabel;html=1;align=center;verticalAlign=middle;resizable=0;points=[];" vertex="1" connectable="0" parent="PxUTHteUMAplcKpXIYFR-174">
          <mxGeometry x="-0.0392" y="-3" relative="1" as="geometry">
            <mxPoint y="-6" as="offset" />
          </mxGeometry>
        </mxCell>
        <mxCell id="PxUTHteUMAplcKpXIYFR-154" value="5. Assign admin" style="ellipse;whiteSpace=wrap;html=1;fontSize=11;" vertex="1" parent="1">
          <mxGeometry x="243.76" y="2560" width="101.25" height="30" as="geometry" />
        </mxCell>
        <mxCell id="PxUTHteUMAplcKpXIYFR-155" value="6. Edit community profile" style="ellipse;whiteSpace=wrap;html=1;fontSize=11;" vertex="1" parent="1">
          <mxGeometry x="243.14" y="2600" width="102.5" height="50" as="geometry" />
        </mxCell>
        <mxCell id="PxUTHteUMAplcKpXIYFR-156" value="7. Add/Remove members" style="ellipse;whiteSpace=wrap;html=1;fontSize=11;" vertex="1" parent="1">
          <mxGeometry x="246.26" y="2660" width="106.25" height="40" as="geometry" />
        </mxCell>
        <mxCell id="PxUTHteUMAplcKpXIYFR-157" value="" style="endArrow=none;html=1;rounded=0;entryX=0.039;entryY=0.69;entryDx=0;entryDy=0;entryPerimeter=0;exitX=1;exitY=0.3333333333333333;exitDx=0;exitDy=0;exitPerimeter=0;" edge="1" parent="1" target="PxUTHteUMAplcKpXIYFR-149" source="PxUTHteUMAplcKpXIYFR-144">
          <mxGeometry width="50" height="50" relative="1" as="geometry">
            <mxPoint x="139.38" y="2510" as="sourcePoint" />
            <mxPoint x="239.38" y="2480" as="targetPoint" />
          </mxGeometry>
        </mxCell>
        <mxCell id="PxUTHteUMAplcKpXIYFR-158" value="" style="endArrow=none;html=1;rounded=0;entryX=0;entryY=0.5;entryDx=0;entryDy=0;exitX=1;exitY=0.3333333333333333;exitDx=0;exitDy=0;exitPerimeter=0;" edge="1" parent="1" target="PxUTHteUMAplcKpXIYFR-152" source="PxUTHteUMAplcKpXIYFR-144">
          <mxGeometry width="50" height="50" relative="1" as="geometry">
            <mxPoint x="139.38" y="2510" as="sourcePoint" />
            <mxPoint x="246.88" y="2430" as="targetPoint" />
          </mxGeometry>
        </mxCell>
        <mxCell id="PxUTHteUMAplcKpXIYFR-159" value="" style="endArrow=none;html=1;rounded=0;exitX=1;exitY=0.3333333333333333;exitDx=0;exitDy=0;exitPerimeter=0;entryX=0;entryY=0.5;entryDx=0;entryDy=0;" edge="1" parent="1" source="PxUTHteUMAplcKpXIYFR-144" target="PxUTHteUMAplcKpXIYFR-153">
          <mxGeometry width="50" height="50" relative="1" as="geometry">
            <mxPoint x="161.88" y="2600" as="sourcePoint" />
            <mxPoint x="236.88" y="2490" as="targetPoint" />
            <Array as="points" />
          </mxGeometry>
        </mxCell>
        <mxCell id="PxUTHteUMAplcKpXIYFR-169" style="edgeStyle=orthogonalEdgeStyle;rounded=0;orthogonalLoop=1;jettySize=auto;html=1;exitX=0.5;exitY=0.5;exitDx=0;exitDy=0;exitPerimeter=0;horizontal=0;entryX=0.5;entryY=0.5;entryDx=0;entryDy=0;entryPerimeter=0;" edge="1" parent="1" source="PxUTHteUMAplcKpXIYFR-166" target="PxUTHteUMAplcKpXIYFR-144">
          <mxGeometry relative="1" as="geometry">
            <mxPoint x="109.38" y="2510" as="targetPoint" />
            <Array as="points">
              <mxPoint x="89.38" y="2660" />
              <mxPoint x="89.38" y="2510" />
            </Array>
          </mxGeometry>
        </mxCell>
        <mxCell id="PxUTHteUMAplcKpXIYFR-166" value="Community Admin" style="shape=umlActor;verticalLabelPosition=bottom;verticalAlign=top;html=1;outlineConnect=0;" vertex="1" parent="1">
          <mxGeometry x="109.38" y="2630" width="30" height="60" as="geometry" />
        </mxCell>
        <mxCell id="PxUTHteUMAplcKpXIYFR-171" value="" style="endArrow=none;html=1;rounded=0;entryX=0;entryY=0.5;entryDx=0;entryDy=0;" edge="1" parent="1" target="PxUTHteUMAplcKpXIYFR-154">
          <mxGeometry width="50" height="50" relative="1" as="geometry">
            <mxPoint x="139.38" y="2650" as="sourcePoint" />
            <mxPoint x="247.38" y="2565" as="targetPoint" />
            <Array as="points" />
          </mxGeometry>
        </mxCell>
        <mxCell id="PxUTHteUMAplcKpXIYFR-172" value="" style="endArrow=none;html=1;rounded=0;entryX=0;entryY=0.5;entryDx=0;entryDy=0;exitX=1;exitY=0.3333333333333333;exitDx=0;exitDy=0;exitPerimeter=0;" edge="1" parent="1" source="PxUTHteUMAplcKpXIYFR-166" target="PxUTHteUMAplcKpXIYFR-155">
          <mxGeometry width="50" height="50" relative="1" as="geometry">
            <mxPoint x="149.38" y="2660" as="sourcePoint" />
            <mxPoint x="256.38" y="2605" as="targetPoint" />
            <Array as="points" />
          </mxGeometry>
        </mxCell>
        <mxCell id="PxUTHteUMAplcKpXIYFR-173" value="" style="endArrow=none;html=1;rounded=0;entryX=0.038;entryY=0.328;entryDx=0;entryDy=0;exitX=1;exitY=0.3333333333333333;exitDx=0;exitDy=0;exitPerimeter=0;entryPerimeter=0;" edge="1" parent="1" source="PxUTHteUMAplcKpXIYFR-166" target="PxUTHteUMAplcKpXIYFR-156">
          <mxGeometry width="50" height="50" relative="1" as="geometry">
            <mxPoint x="159.38" y="2670" as="sourcePoint" />
            <mxPoint x="266.38" y="2615" as="targetPoint" />
            <Array as="points" />
          </mxGeometry>
        </mxCell>
        <mxCell id="PxUTHteUMAplcKpXIYFR-176" value="User" style="shape=umlActor;verticalLabelPosition=bottom;verticalAlign=top;html=1;outlineConnect=0;" vertex="1" parent="1">
          <mxGeometry x="91.88" y="2930" width="30" height="60" as="geometry" />
        </mxCell>
        <mxCell id="PxUTHteUMAplcKpXIYFR-177" value="" style="rounded=0;whiteSpace=wrap;html=1;" vertex="1" parent="1">
          <mxGeometry x="200.63" y="2800" width="268.75" height="320" as="geometry" />
        </mxCell>
        <mxCell id="PxUTHteUMAplcKpXIYFR-178" value="Messaging" style="text;html=1;strokeColor=none;fillColor=none;align=center;verticalAlign=top;whiteSpace=wrap;rounded=0;horizontal=1;" vertex="1" parent="1">
          <mxGeometry x="277.51" y="2800" width="100" height="30" as="geometry" />
        </mxCell>
        <mxCell id="PxUTHteUMAplcKpXIYFR-179" value="1. Start chat" style="ellipse;whiteSpace=wrap;html=1;fontSize=11;" vertex="1" parent="1">
          <mxGeometry x="254.38" y="2830" width="147.5" height="30" as="geometry" />
        </mxCell>
        <mxCell id="PxUTHteUMAplcKpXIYFR-180" value="" style="endArrow=none;html=1;rounded=0;exitX=1;exitY=0.3333333333333333;exitDx=0;exitDy=0;exitPerimeter=0;entryX=0;entryY=0.5;entryDx=0;entryDy=0;" edge="1" parent="1" source="PxUTHteUMAplcKpXIYFR-176" target="PxUTHteUMAplcKpXIYFR-179">
          <mxGeometry width="50" height="50" relative="1" as="geometry">
            <mxPoint x="245.63" y="2960" as="sourcePoint" />
            <mxPoint x="295.63" y="2910" as="targetPoint" />
          </mxGeometry>
        </mxCell>
        <mxCell id="PxUTHteUMAplcKpXIYFR-181" value="2. Send Message" style="ellipse;whiteSpace=wrap;html=1;fontSize=11;" vertex="1" parent="1">
          <mxGeometry x="253.13" y="2870" width="148.75" height="40" as="geometry" />
        </mxCell>
        <mxCell id="PxUTHteUMAplcKpXIYFR-182" value="3. Receive message" style="ellipse;whiteSpace=wrap;html=1;fontSize=11;verticalAlign=middle;" vertex="1" parent="1">
          <mxGeometry x="260.01" y="2930" width="141.87" height="50" as="geometry" />
        </mxCell>
        <mxCell id="PxUTHteUMAplcKpXIYFR-183" value="4. Delete message" style="ellipse;whiteSpace=wrap;html=1;fontSize=11;" vertex="1" parent="1">
          <mxGeometry x="261.88" y="2990" width="140" height="40" as="geometry" />
        </mxCell>
        <mxCell id="PxUTHteUMAplcKpXIYFR-184" value="" style="endArrow=none;html=1;rounded=0;entryX=0;entryY=0.5;entryDx=0;entryDy=0;" edge="1" parent="1" target="PxUTHteUMAplcKpXIYFR-181">
          <mxGeometry width="50" height="50" relative="1" as="geometry">
            <mxPoint x="121.88" y="2950" as="sourcePoint" />
            <mxPoint x="240.63" y="2870" as="targetPoint" />
          </mxGeometry>
        </mxCell>
        <mxCell id="PxUTHteUMAplcKpXIYFR-185" value="" style="endArrow=none;html=1;rounded=0;entryX=0;entryY=0.5;entryDx=0;entryDy=0;exitX=1;exitY=0.3333333333333333;exitDx=0;exitDy=0;exitPerimeter=0;" edge="1" parent="1" source="PxUTHteUMAplcKpXIYFR-176" target="PxUTHteUMAplcKpXIYFR-182">
          <mxGeometry width="50" height="50" relative="1" as="geometry">
            <mxPoint x="165.63" y="2950" as="sourcePoint" />
            <mxPoint x="260.63" y="2860" as="targetPoint" />
          </mxGeometry>
        </mxCell>
        <mxCell id="PxUTHteUMAplcKpXIYFR-186" value="" style="endArrow=none;html=1;rounded=0;exitX=1;exitY=0.3333333333333333;exitDx=0;exitDy=0;exitPerimeter=0;entryX=0;entryY=0.5;entryDx=0;entryDy=0;" edge="1" parent="1" source="PxUTHteUMAplcKpXIYFR-176" target="PxUTHteUMAplcKpXIYFR-183">
          <mxGeometry width="50" height="50" relative="1" as="geometry">
            <mxPoint x="175.63" y="3030" as="sourcePoint" />
            <mxPoint x="250.63" y="2920" as="targetPoint" />
            <Array as="points" />
          </mxGeometry>
        </mxCell>
        <mxCell id="PxUTHteUMAplcKpXIYFR-187" value="5. View chat history" style="ellipse;whiteSpace=wrap;html=1;fontSize=11;" vertex="1" parent="1">
          <mxGeometry x="263.13" y="3050" width="140" height="40" as="geometry" />
        </mxCell>
        <mxCell id="PxUTHteUMAplcKpXIYFR-188" value="" style="endArrow=none;html=1;rounded=0;exitX=1;exitY=0.3333333333333333;exitDx=0;exitDy=0;exitPerimeter=0;entryX=0;entryY=0.5;entryDx=0;entryDy=0;" edge="1" parent="1" source="PxUTHteUMAplcKpXIYFR-176" target="PxUTHteUMAplcKpXIYFR-187">
          <mxGeometry width="50" height="50" relative="1" as="geometry">
            <mxPoint x="131.88" y="2960" as="sourcePoint" />
            <mxPoint x="271.88" y="3020" as="targetPoint" />
            <Array as="points" />
          </mxGeometry>
        </mxCell>
        <mxCell id="PxUTHteUMAplcKpXIYFR-190" value="8. Delete community" style="ellipse;whiteSpace=wrap;html=1;fontSize=11;" vertex="1" parent="1">
          <mxGeometry x="250.01" y="2710" width="106.25" height="40" as="geometry" />
        </mxCell>
        <mxCell id="PxUTHteUMAplcKpXIYFR-191" value="" style="endArrow=none;html=1;rounded=0;entryX=0;entryY=0.5;entryDx=0;entryDy=0;" edge="1" parent="1" target="PxUTHteUMAplcKpXIYFR-190">
          <mxGeometry width="50" height="50" relative="1" as="geometry">
            <mxPoint x="139.38" y="2650" as="sourcePoint" />
            <mxPoint x="260.38" y="2683" as="targetPoint" />
            <Array as="points" />
          </mxGeometry>
        </mxCell>
        <mxCell id="PxUTHteUMAplcKpXIYFR-193" value="Encompass" style="text;html=1;strokeColor=none;fillColor=none;align=center;verticalAlign=middle;whiteSpace=wrap;rounded=0;fontSize=16;" vertex="1" parent="1">
          <mxGeometry x="274.7" width="112.49" height="30" as="geometry" />
        </mxCell>
      </root>
    </mxGraphModel>
  </diagram>
</mxfile>
